<?xml version="1.0" encoding="utf-8"?>
<!-- Generator: Adobe Illustrator 21.0.2, SVG Export Plug-In . SVG Version: 6.00 Build 0)  -->
<svg version="1.1" id="Слой_1" xmlns="http://www.w3.org/2000/svg" xmlns:xlink="http://www.w3.org/1999/xlink" x="0px" y="0px"
	 viewBox="0 0 30 30" style="enable-background:new 0 0 30 30;" xml:space="preserve">
<style type="text/css">
	.st0{fill:#FFFFFF;}
	.st1{fill:none;stroke:url(#SVGID_1_);stroke-width:2;stroke-linecap:round;stroke-linejoin:round;stroke-miterlimit:10;}
	.st2{fill:none;stroke:url(#SVGID_2_);stroke-width:2;stroke-linecap:round;stroke-linejoin:round;stroke-miterlimit:10;}
	.st3{fill:none;stroke:url(#SVGID_3_);stroke-width:2;stroke-linecap:round;stroke-linejoin:round;stroke-miterlimit:10;}
	.st4{fill:none;stroke:url(#SVGID_4_);stroke-width:2;stroke-linecap:round;stroke-linejoin:round;stroke-miterlimit:10;}
	.st5{fill:none;stroke:url(#SVGID_5_);stroke-width:2;stroke-linecap:round;stroke-linejoin:round;stroke-miterlimit:10;}
	.st6{fill:none;stroke:url(#SVGID_6_);stroke-width:2;stroke-linecap:round;stroke-linejoin:round;stroke-miterlimit:10;}
	.st7{fill:none;stroke:url(#SVGID_7_);stroke-width:2;stroke-linecap:round;stroke-linejoin:round;stroke-miterlimit:10;}
	.st8{fill:none;stroke:url(#SVGID_8_);stroke-width:2;stroke-linecap:round;stroke-linejoin:round;stroke-miterlimit:10;}
	.st9{fill:none;stroke:url(#SVGID_9_);stroke-width:2;stroke-linecap:round;stroke-linejoin:round;stroke-miterlimit:10;}
	.st10{fill:none;stroke:url(#SVGID_10_);stroke-width:2;stroke-linecap:round;stroke-linejoin:round;stroke-miterlimit:10;}
	.st11{fill:none;stroke:url(#SVGID_11_);stroke-width:2;stroke-linecap:round;stroke-linejoin:round;stroke-miterlimit:10;}
	.st12{fill:none;stroke:url(#SVGID_12_);stroke-width:2;stroke-linecap:round;stroke-linejoin:round;stroke-miterlimit:10;}
	.st13{fill:none;stroke:url(#SVGID_13_);stroke-width:2;stroke-linecap:round;stroke-linejoin:round;stroke-miterlimit:10;}
	.st14{fill:none;stroke:url(#SVGID_14_);stroke-width:2;stroke-linecap:round;stroke-linejoin:round;stroke-miterlimit:10;}
	.st15{fill:none;stroke:url(#SVGID_15_);stroke-width:2;stroke-linecap:round;stroke-linejoin:round;stroke-miterlimit:10;}
	.st16{fill:none;stroke:url(#SVGID_16_);stroke-width:2;stroke-linecap:round;stroke-linejoin:round;stroke-miterlimit:10;}
	.st17{fill:none;stroke:url(#SVGID_17_);stroke-width:2;stroke-linecap:round;stroke-linejoin:round;stroke-miterlimit:10;}
	.st18{fill:none;stroke:url(#SVGID_18_);stroke-width:2;stroke-linecap:round;stroke-linejoin:round;stroke-miterlimit:10;}
	.st19{fill:none;stroke:url(#SVGID_19_);stroke-width:2;stroke-linecap:round;stroke-linejoin:round;stroke-miterlimit:10;}
	.st20{fill:none;stroke:url(#SVGID_20_);stroke-width:2;stroke-linecap:round;stroke-linejoin:round;stroke-miterlimit:10;}
	.st21{fill:#4F4DFC;}
</style>
<rect x="-214" y="-517" class="st0" width="620" height="300"/>
<linearGradient id="SVGID_1_" gradientUnits="userSpaceOnUse" x1="-155" y1="-434.5" x2="-155" y2="-384.5">
	<stop  offset="0" style="stop-color:#FF7676"/>
	<stop  offset="0.1113" style="stop-color:#F6747D"/>
	<stop  offset="0.2965" style="stop-color:#DC6E91"/>
	<stop  offset="0.5327" style="stop-color:#B364B0"/>
	<stop  offset="0.8077" style="stop-color:#7A57DB"/>
	<stop  offset="0.9944" style="stop-color:#4F4DFC"/>
</linearGradient>
<path class="st1" d="M-151.6-393.6l-3.4-1.8l-14.9,7.9l2.9-16.6l-12.1-11.8l16.7-2.4l7.5-15.1l7.5,15.1l16.7,2.4l-5.6,5.4
	 M-143.4-397.6l-6.5,1l4.7,4.6l-1.1,6.5l5.8-3.1l5.8,3.1l-1.1-6.5l4.7-4.6l-6.5-1l-2.9-5.9L-143.4-397.6z M-162-386h-15l0,0H-162
	L-162-386z"/>
<text transform="matrix(1 0 0 1 126 -487)"><tspan x="0" y="0" style="fill:#0000FF; font-family:'MyriadPro-Regular'; font-size:15px;">4f4dfc</tspan><tspan x="0" y="36" style="fill:#0000FF; font-family:'MyriadPro-Regular'; font-size:15px;">ff7676</tspan></text>
<text transform="matrix(1 0 0 1 -173 -458)" style="font-family:'MyriadPro-Regular'; font-size:15px;">50x50</text>
<linearGradient id="SVGID_2_" gradientUnits="userSpaceOnUse" x1="-83" y1="-435" x2="-83" y2="-385">
	<stop  offset="0" style="stop-color:#FF7676"/>
	<stop  offset="0.1113" style="stop-color:#F6747D"/>
	<stop  offset="0.2965" style="stop-color:#DC6E91"/>
	<stop  offset="0.5327" style="stop-color:#B364B0"/>
	<stop  offset="0.8077" style="stop-color:#7A57DB"/>
	<stop  offset="0.9944" style="stop-color:#4F4DFC"/>
</linearGradient>
<path class="st2" d="M-62.5-386h-40v-28c0-3.3,2.7-6,6-6h28c3.3,0,6,2.7,6,6V-386z M-62.5-414c0-3.3-2.7-6-6-6h-20c-3.3,0-6,2.7-6,6
	v28h32V-414z M-71.5-412v-15c0-3.9-3.1-7-7-7h0c-3.9,0-7,3.1-7,7v15 M-79.5-421v-6c0-3.9-3.1-7-7-7h0c-3.9,0-7,3.1-7,7v6 M-59.5-386
	h-47l0,0H-59.5L-59.5-386z M-100-407h0.3 M-62.5-407L-62.5-407h-33.8 M-65.5-396h-0.3 M-65.5-391h-0.3 M-102-396L-102-396h32.8"/>
<linearGradient id="SVGID_3_" gradientUnits="userSpaceOnUse" x1="-11" y1="-436.0735" x2="-11" y2="-385">
	<stop  offset="0" style="stop-color:#FF7676"/>
	<stop  offset="0.1113" style="stop-color:#F6747D"/>
	<stop  offset="0.2965" style="stop-color:#DC6E91"/>
	<stop  offset="0.5327" style="stop-color:#B364B0"/>
	<stop  offset="0.8077" style="stop-color:#7A57DB"/>
	<stop  offset="0.9944" style="stop-color:#4F4DFC"/>
</linearGradient>
<path class="st3" d="M-11.4-386L-11.4-386L-11.4-386c-9.6-5.7-16.3-15.3-18.4-26.2l-2.7-13.8l3.4-1.3l0.3-0.3
	c9.7-10,25.8-10,35.4,0.2l0,0l3.9,1.4L8-413C5.8-401.6-1.3-391.7-11.4-386z M-20-399c2.3,3.4,5,5.9,8.6,8h0h0C-2-398,0-402,4-413
	 M-11.4-395 M5.5-386h-25l0,0H5.5L5.5-386z M-21.6-413.1L-21.6-413.1c-1.1,1.1-1.1,2.9,0.1,4l6.8,6.1l14.6-15.5c0.8-0.8,0.8-2.2,0-3
	h0c-0.8-0.8-2.2-0.8-3,0L-14.7-410l-3.1-3.1C-18.8-414.1-20.6-414.1-21.6-413.1z M-25.8-424.2c-0.1,0.1-0.2,0.2-0.2,0.2 M-10-431
	c0,0-4.3-0.2-7,1c-2.3,1-6.1,3.5-6.4,3.7"/>
<linearGradient id="SVGID_4_" gradientUnits="userSpaceOnUse" x1="58" y1="-434.5844" x2="58" y2="-385">
	<stop  offset="0" style="stop-color:#FF7676"/>
	<stop  offset="0.1113" style="stop-color:#F6747D"/>
	<stop  offset="0.2965" style="stop-color:#DC6E91"/>
	<stop  offset="0.5327" style="stop-color:#B364B0"/>
	<stop  offset="0.8077" style="stop-color:#7A57DB"/>
	<stop  offset="0.9944" style="stop-color:#4F4DFC"/>
</linearGradient>
<path class="st4" d="M69.8-386h-23l0,0H69.8L69.8-386z M61.6-425.8l-21.4,21.4l0,0L61.6-425.8L61.6-425.8z M63.6-427.8l0.2-0.2l0,0
	L63.6-427.8L63.6-427.8z M68.3-423.5l-23.6,23.6l0,0L68.3-423.5L68.3-423.5z M57.8-404l-8.6,8.6l0,0L57.8-404L57.8-404z M62.8-409
	l-1.5,1.5l0,0L62.8-409L62.8-409z M59.8-400l-7.6,7.6l0,0L59.8-400L59.8-400z M80.3-416.6l-16-16c-1.3-1.3-3.5-1.3-4.8,0l-23.6,23.6
	c-1.3,1.3-1.3,3.5,0,4.8l16,16c1.3,1.3,3.5,1.3,4.8,0l23.6-23.6C81.6-413.1,81.6-415.2,80.3-416.6z M74.9-415.9l-2.7-2.7
	c-0.2-0.2-0.6-0.2-0.8,0l-4.2,4.2c-0.2,0.2-0.2,0.6,0,0.8l2.7,2.7c0.2,0.2,0.6,0.2,0.8,0l4.2-4.2C75.1-415.3,75.1-415.7,74.9-415.9z
	"/>
<linearGradient id="SVGID_5_" gradientUnits="userSpaceOnUse" x1="126" y1="-427" x2="126" y2="-385">
	<stop  offset="0" style="stop-color:#FF7676"/>
	<stop  offset="0.1113" style="stop-color:#F6747D"/>
	<stop  offset="0.2965" style="stop-color:#DC6E91"/>
	<stop  offset="0.5327" style="stop-color:#B364B0"/>
	<stop  offset="0.8077" style="stop-color:#7A57DB"/>
	<stop  offset="0.9944" style="stop-color:#4F4DFC"/>
</linearGradient>
<path class="st5" d="M117-391c0,2.8-2.2,5-5,5s-5-2.2-5-5s2.2-5,5-5S117-393.8,117-391z M141.3-395.3c-2.6,0-4.6,2.1-4.6,4.6
	s2.1,4.6,4.6,4.6c2.6,0,4.6-2.1,4.6-4.6S143.8-395.3,141.3-395.3z M111-386h-9l0,0H111L111-386z M131.5-386h0.9h8.1h-0.9 M120-395
	h1.8h17.7h-2.9 M116-414h-1.4H102h1.4 M120-414L120-414h-0.7h0.1 M117-390h14v-30h-29v30h4.6 M146-390h4v-15.4l-7.1-7.6H131v23h4.6
	 M145.9-409H136v9h14v-5 M141-400v-9 M115.3-420l-5.3-6l-5.6,6 M127.1-420l-0.1-4h-15"/>
<linearGradient id="SVGID_6_" gradientUnits="userSpaceOnUse" x1="-147.6231" y1="-356" x2="-147.6231" y2="-306">
	<stop  offset="0" style="stop-color:#FF7676"/>
	<stop  offset="0.1113" style="stop-color:#F6747D"/>
	<stop  offset="0.2965" style="stop-color:#DC6E91"/>
	<stop  offset="0.5327" style="stop-color:#B364B0"/>
	<stop  offset="0.8077" style="stop-color:#7A57DB"/>
	<stop  offset="0.9944" style="stop-color:#4F4DFC"/>
</linearGradient>
<path class="st6" d="M-153.9-348.3c1.1,2.2,1.1,4.3,0,5.4s-4.3,3.3-4.3,4.3c0,1.1,4.2,6.6,6.5,9.8c2.8,3.7,9.7,9.7,10.8,9.7
	s4.4-4.3,6.6-4.3c2.2,0,9.5,8.1,8.4,10.3s-5.1,6-9.5,6s-17-8.4-23.9-16.3c-7.6-8.7-10.9-21.7-9.8-25c0.7-2,3.5-4.5,5.5-6.1
	c1.2-0.9,2.9-0.9,4,0.1C-157.6-352.4-154.7-349.7-153.9-348.3z M-144.5-307h-16l0,0H-144.5L-144.5-307z M-165-352c0,0,3.1,2.1,4,3
	s2,3,2,3 M-138-321c0,0,4,2,6,6"/>
<linearGradient id="SVGID_7_" gradientUnits="userSpaceOnUse" x1="-87" y1="-356.5" x2="-87" y2="-305.5">
	<stop  offset="0" style="stop-color:#FF7676"/>
	<stop  offset="0.1113" style="stop-color:#F6747D"/>
	<stop  offset="0.2965" style="stop-color:#DC6E91"/>
	<stop  offset="0.5327" style="stop-color:#B364B0"/>
	<stop  offset="0.8077" style="stop-color:#7A57DB"/>
	<stop  offset="0.9944" style="stop-color:#4F4DFC"/>
</linearGradient>
<path class="st7" d="M-98.2-306.5h22 M-84.2-355.5l-27,27l21.4,21.4l27-27L-84.2-355.5z M-110.2-328.5h25v-25 M-90.2-308.5V-322
	 M-63.2-334.5H-78"/>
<linearGradient id="SVGID_8_" gradientUnits="userSpaceOnUse" x1="-20.8659" y1="-355" x2="-20.8659" y2="-305">
	<stop  offset="0" style="stop-color:#FF7676"/>
	<stop  offset="0.1113" style="stop-color:#F6747D"/>
	<stop  offset="0.2965" style="stop-color:#DC6E91"/>
	<stop  offset="0.5327" style="stop-color:#B364B0"/>
	<stop  offset="0.8077" style="stop-color:#7A57DB"/>
	<stop  offset="0.9944" style="stop-color:#4F4DFC"/>
</linearGradient>
<path class="st8" d="M-29.1-306h17 M-21.1-312c-1.7,0-3,1.3-3,3s1.3,3,3,3s3-1.3,3-3S-19.5-312-21.1-312z M-2.1-318
	c-1.7,0-3,1.3-3,3s1.3,3,3,3s3-1.3,3-3S-0.5-318-2.1-318z M-41-354h-4v2h4V-354z M-41-353l3.4,0.6l11.4,40.4l29.5-8.3 M-1.1-319.2
	l-3.9-13.7l-25.1,7.1l3.9,13.7 M-19.6-328.7l2.4,8.3l1.3-2.6l2.7,1.5l-2.4-8.3 M-10.9-331.5l-4.2-15l-19.3,5.5l4.2,15 M-27-342.6
	l2.3,8.1l1.7-2.5l3.2,1.1l-2.3-8.1"/>
<linearGradient id="SVGID_9_" gradientUnits="userSpaceOnUse" x1="50" y1="-356.5" x2="50" y2="-306">
	<stop  offset="0" style="stop-color:#FF7676"/>
	<stop  offset="0.1113" style="stop-color:#F6747D"/>
	<stop  offset="0.2965" style="stop-color:#DC6E91"/>
	<stop  offset="0.5327" style="stop-color:#B364B0"/>
	<stop  offset="0.8077" style="stop-color:#7A57DB"/>
	<stop  offset="0.9944" style="stop-color:#4F4DFC"/>
</linearGradient>
<path class="st9" d="M70-335.5c0,11-20,28-20,28s-20-17-20-28s9-20,20-20S70-346.5,70-335.5z M62.7-330.9c1.1-3,1.1-6.4-0.2-9.6
	c-2.8-6.9-10.6-10.3-17.5-7.6s-10.3,10.6-7.6,17.5S48.1-320.2,55-323c1.3-0.5,2.5-1.2,3.6-2.1 M38-307h24 M56-335l-1-13h-5v13
	c0,1.7,1.3,3,3,3h0C54.7-332,56-333.3,56-335z M56.9-347H56v12c0,1.7,1.3,3,3,3h0c1.7,0,3-1.3,3-3l-0.7-7.8 M47-332L47-332
	c1.7,0,3-1.3,3-3v-13h-5l-1,13C44-333.3,45.3-332,47-332z M38.6-342.2L38-335c0,1.7,1.3,3,3,3h0c1.7,0,3-1.3,3-3v-12h-0.3 M55-324
	v-5H45v6 M53.5-337H62 M48.3-337h1.9 M38-337h1.9"/>
<linearGradient id="SVGID_10_" gradientUnits="userSpaceOnUse" x1="106" y1="-355.25" x2="106" y2="-304.75">
	<stop  offset="0" style="stop-color:#FF7676"/>
	<stop  offset="0.1113" style="stop-color:#F6747D"/>
	<stop  offset="0.2965" style="stop-color:#DC6E91"/>
	<stop  offset="0.5327" style="stop-color:#B364B0"/>
	<stop  offset="0.8077" style="stop-color:#7A57DB"/>
	<stop  offset="0.9944" style="stop-color:#4F4DFC"/>
</linearGradient>
<path class="st10" d="M126-334.3c0,11-20,28-20,28s-20-17-20-28s9-20,20-20S126-345.3,126-334.3z M118.2-340c-1-2.2-2.6-4.1-4.7-5.5
	 M98.7-345.6c-2.2,1.4-4,3.4-5.1,6c-3,6.8,0.2,14.8,7.1,17.7c6.8,3,14.8-0.2,17.7-7.1c0.6-1.3,0.9-2.6,1-4 M94-305.8h24 M106-350
	c-4.7,0-8.5,4-8.5,9s3.8,9,8.5,9s8.5-4,8.5-9S110.7-350,106-350z M116.5-326c0-3.4-2.2-6.3-5.4-7.8 M100.8-333.8
	c-3.2,1.5-5.3,4.5-5.3,7.8 M99-346l3,3l3-2l3,2l2-1"/>
<rect x="428" y="-523" class="st0" width="620" height="300"/>
<linearGradient id="SVGID_11_" gradientUnits="userSpaceOnUse" x1="487" y1="-440.5" x2="487" y2="-390.5">
	<stop  offset="0" style="stop-color:#2ACDE5"/>
	<stop  offset="0.1321" style="stop-color:#2CC4E2"/>
	<stop  offset="0.3517" style="stop-color:#33AAD8"/>
	<stop  offset="0.6317" style="stop-color:#3D81C9"/>
	<stop  offset="0.9583" style="stop-color:#4B48B4"/>
	<stop  offset="0.9944" style="stop-color:#4D41B1"/>
</linearGradient>
<path class="st11" d="M490.4-399.6l-3.4-1.8l-14.9,7.9l2.9-16.6l-12.1-11.8l16.7-2.4l7.5-15.1l7.5,15.1l16.7,2.4l-5.6,5.4
	 M498.6-403.6l-6.5,1l4.7,4.6l-1.1,6.5l5.8-3.1l5.8,3.1l-1.1-6.5l4.7-4.6l-6.5-1l-2.9-5.9L498.6-403.6z M480-392h-15l0,0H480
	L480-392z"/>
<text transform="matrix(1 0 0 1 469 -464)" style="font-family:'MyriadPro-Regular'; font-size:15px;">50x50</text>
<linearGradient id="SVGID_12_" gradientUnits="userSpaceOnUse" x1="559" y1="-441" x2="559" y2="-391">
	<stop  offset="0" style="stop-color:#2ACDE5"/>
	<stop  offset="0.1321" style="stop-color:#2CC4E2"/>
	<stop  offset="0.3517" style="stop-color:#33AAD8"/>
	<stop  offset="0.6317" style="stop-color:#3D81C9"/>
	<stop  offset="0.9583" style="stop-color:#4B48B4"/>
	<stop  offset="0.9944" style="stop-color:#4D41B1"/>
</linearGradient>
<path class="st12" d="M579.5-392h-40v-28c0-3.3,2.7-6,6-6h28c3.3,0,6,2.7,6,6V-392z M579.5-420c0-3.3-2.7-6-6-6h-20
	c-3.3,0-6,2.7-6,6v28h32V-420z M570.5-418v-15c0-3.9-3.1-7-7-7l0,0c-3.9,0-7,3.1-7,7v15 M562.5-427v-6c0-3.9-3.1-7-7-7l0,0
	c-3.9,0-7,3.1-7,7v6 M582.5-392h-47l0,0H582.5L582.5-392z M542-413h0.3 M579.5-413L579.5-413h-33.8 M576.5-402h-0.3 M576.5-397h-0.3
	 M540-402L540-402h32.8"/>
<linearGradient id="SVGID_13_" gradientUnits="userSpaceOnUse" x1="631" y1="-442.0735" x2="631" y2="-391">
	<stop  offset="0" style="stop-color:#2ACDE5"/>
	<stop  offset="0.1321" style="stop-color:#2CC4E2"/>
	<stop  offset="0.3517" style="stop-color:#33AAD8"/>
	<stop  offset="0.6317" style="stop-color:#3D81C9"/>
	<stop  offset="0.9583" style="stop-color:#4B48B4"/>
	<stop  offset="0.9944" style="stop-color:#4D41B1"/>
</linearGradient>
<path class="st13" d="M630.6-392L630.6-392L630.6-392c-9.6-5.7-16.3-15.3-18.4-26.2l-2.7-13.8l3.4-1.3l0.3-0.3
	c9.7-10,25.8-10,35.4,0.2v0l3.9,1.4l-2.5,13C647.8-407.6,640.7-397.7,630.6-392z M622-405c2.3,3.4,5,5.9,8.6,8l0,0h0
	c9.4-7,11.4-11,15.4-22 M630.6-401 M647.5-392h-25l0,0H647.5L647.5-392z M620.4-419.1L620.4-419.1c-1.1,1.1-1.1,2.9,0.1,4l6.8,6.1
	l14.6-15.5c0.8-0.8,0.8-2.2,0-3l0,0c-0.8-0.8-2.2-0.8-3,0L627.3-416l-3.1-3.1C623.2-420.1,621.4-420.1,620.4-419.1z M616.2-430.2
	c-0.1,0.1-0.2,0.2-0.2,0.2 M632-437c0,0-4.3-0.2-7,1c-2.3,1-6.1,3.5-6.4,3.7"/>
<linearGradient id="SVGID_14_" gradientUnits="userSpaceOnUse" x1="700" y1="-440.5844" x2="700" y2="-391">
	<stop  offset="0" style="stop-color:#2ACDE5"/>
	<stop  offset="0.1321" style="stop-color:#2CC4E2"/>
	<stop  offset="0.3517" style="stop-color:#33AAD8"/>
	<stop  offset="0.6317" style="stop-color:#3D81C9"/>
	<stop  offset="0.9583" style="stop-color:#4B48B4"/>
	<stop  offset="0.9944" style="stop-color:#4D41B1"/>
</linearGradient>
<path class="st14" d="M711.8-392h-23l0,0H711.8L711.8-392z M703.6-431.8l-21.4,21.4l0,0L703.6-431.8L703.6-431.8z M705.6-433.8
	l0.2-0.2l0,0L705.6-433.8L705.6-433.8z M710.3-429.5l-23.6,23.6l0,0L710.3-429.5L710.3-429.5z M699.8-410l-8.6,8.6l0,0L699.8-410
	L699.8-410z M704.8-415l-1.5,1.5l0,0L704.8-415L704.8-415z M701.8-406l-7.6,7.6l0,0L701.8-406L701.8-406z M722.3-422.6l-16-16
	c-1.3-1.3-3.5-1.3-4.8,0l-23.6,23.6c-1.3,1.3-1.3,3.5,0,4.8l16,16c1.3,1.3,3.5,1.3,4.8,0l23.6-23.6
	C723.6-419.1,723.6-421.2,722.3-422.6z M716.9-421.9l-2.7-2.7c-0.2-0.2-0.6-0.2-0.8,0l-4.2,4.2c-0.2,0.2-0.2,0.6,0,0.8l2.7,2.7
	c0.2,0.2,0.6,0.2,0.8,0l4.2-4.2C717.1-421.3,717.1-421.7,716.9-421.9z"/>
<linearGradient id="SVGID_15_" gradientUnits="userSpaceOnUse" x1="768" y1="-433" x2="768" y2="-391">
	<stop  offset="0" style="stop-color:#2ACDE5"/>
	<stop  offset="0.1321" style="stop-color:#2CC4E2"/>
	<stop  offset="0.3517" style="stop-color:#33AAD8"/>
	<stop  offset="0.6317" style="stop-color:#3D81C9"/>
	<stop  offset="0.9583" style="stop-color:#4B48B4"/>
	<stop  offset="0.9944" style="stop-color:#4D41B1"/>
</linearGradient>
<path class="st15" d="M759-397c0,2.8-2.2,5-5,5s-5-2.2-5-5s2.2-5,5-5S759-399.8,759-397z M783.3-401.3c-2.6,0-4.6,2.1-4.6,4.6
	s2.1,4.6,4.6,4.6c2.6,0,4.6-2.1,4.6-4.6S785.8-401.3,783.3-401.3z M753-392h-9l0,0H753L753-392z M773.5-392h0.9h8.1h-0.9 M762-401
	h1.8h17.7h-2.8 M758-420h-1.4H744h1.4 M762-420L762-420h-0.7h0.1 M759-396h14v-30h-29v30h4.6 M788-396h4v-15.4l-7.1-7.6H773v23h4.6
	 M787.9-415H778v9h14v-5 M783-406v-9 M757.3-426l-5.3-6l-5.6,6 M769.1-426l-0.1-4h-15"/>
<linearGradient id="SVGID_16_" gradientUnits="userSpaceOnUse" x1="494.3769" y1="-362" x2="494.3769" y2="-312">
	<stop  offset="0" style="stop-color:#2ACDE5"/>
	<stop  offset="0.1321" style="stop-color:#2CC4E2"/>
	<stop  offset="0.3517" style="stop-color:#33AAD8"/>
	<stop  offset="0.6317" style="stop-color:#3D81C9"/>
	<stop  offset="0.9583" style="stop-color:#4B48B4"/>
	<stop  offset="0.9944" style="stop-color:#4D41B1"/>
</linearGradient>
<path class="st16" d="M488.1-354.3c1.1,2.2,1.1,4.3,0,5.4c-1.1,1.1-4.3,3.3-4.3,4.3c0,1.1,4.2,6.6,6.5,9.8c2.8,3.7,9.7,9.7,10.8,9.7
	s4.4-4.3,6.6-4.3s9.5,8.1,8.4,10.3s-5.1,6-9.5,6c-4.3,0-17-8.4-23.9-16.3c-7.6-8.7-10.9-21.7-9.8-25c0.7-2,3.5-4.5,5.5-6.1
	c1.2-0.9,2.9-0.9,4,0.1C484.4-358.4,487.3-355.7,488.1-354.3z M497.5-313h-16l0,0H497.5L497.5-313z M477-358c0,0,3.1,2.1,4,3
	s2,3,2,3 M504-327c0,0,4,2,6,6"/>
<linearGradient id="SVGID_17_" gradientUnits="userSpaceOnUse" x1="555" y1="-362.5" x2="555" y2="-311.5">
	<stop  offset="0" style="stop-color:#2ACDE5"/>
	<stop  offset="0.1321" style="stop-color:#2CC4E2"/>
	<stop  offset="0.3517" style="stop-color:#33AAD8"/>
	<stop  offset="0.6317" style="stop-color:#3D81C9"/>
	<stop  offset="0.9583" style="stop-color:#4B48B4"/>
	<stop  offset="0.9944" style="stop-color:#4D41B1"/>
</linearGradient>
<path class="st17" d="M543.8-312.5h22 M557.8-361.5l-27,27l21.4,21.4l27-27L557.8-361.5z M531.8-334.5h25v-25 M551.8-314.5V-328
	 M578.8-340.5H564"/>
<linearGradient id="SVGID_18_" gradientUnits="userSpaceOnUse" x1="621.1341" y1="-361" x2="621.1341" y2="-311">
	<stop  offset="0" style="stop-color:#2ACDE5"/>
	<stop  offset="0.1321" style="stop-color:#2CC4E2"/>
	<stop  offset="0.3517" style="stop-color:#33AAD8"/>
	<stop  offset="0.6317" style="stop-color:#3D81C9"/>
	<stop  offset="0.9583" style="stop-color:#4B48B4"/>
	<stop  offset="0.9944" style="stop-color:#4D41B1"/>
</linearGradient>
<path class="st18" d="M612.9-312h17 M620.9-318c-1.7,0-3,1.3-3,3s1.3,3,3,3s3-1.3,3-3S622.5-318,620.9-318z M639.9-324
	c-1.7,0-3,1.3-3,3s1.3,3,3,3s3-1.3,3-3S641.5-324,639.9-324z M601-360h-4v2h4V-360z M601-359l3.4,0.6l11.4,40.4l29.5-8.3
	 M640.9-325.2l-3.9-13.7l-25.1,7.1l3.9,13.7 M622.4-334.7l2.4,8.3l1.3-2.6l2.7,1.5l-2.4-8.3 M631.1-337.5l-4.2-15l-19.3,5.5l4.2,15
	 M615-348.6l2.3,8.1l1.7-2.5l3.2,1.1l-2.3-8.1"/>
<linearGradient id="SVGID_19_" gradientUnits="userSpaceOnUse" x1="692" y1="-362.5" x2="692" y2="-312">
	<stop  offset="0" style="stop-color:#2ACDE5"/>
	<stop  offset="0.1321" style="stop-color:#2CC4E2"/>
	<stop  offset="0.3517" style="stop-color:#33AAD8"/>
	<stop  offset="0.6317" style="stop-color:#3D81C9"/>
	<stop  offset="0.9583" style="stop-color:#4B48B4"/>
	<stop  offset="0.9944" style="stop-color:#4D41B1"/>
</linearGradient>
<path class="st19" d="M712-341.5c0,11-20,28-20,28s-20-17-20-28s9-20,20-20S712-352.5,712-341.5z M704.7-336.9
	c1.1-3,1.1-6.4-0.2-9.6c-2.8-6.9-10.6-10.3-17.5-7.6s-10.3,10.6-7.6,17.5c2.8,6.9,10.6,10.3,17.5,7.6c1.3-0.5,2.5-1.2,3.6-2.1
	 M680-313h24 M698-341l-1-13h-5v13c0,1.7,1.3,3,3,3l0,0C696.7-338,698-339.3,698-341z M698.9-353H698v12c0,1.7,1.3,3,3,3l0,0
	c1.7,0,3-1.3,3-3l-0.7-7.8 M689-338L689-338c1.7,0,3-1.3,3-3v-13h-5l-1,13C686-339.3,687.3-338,689-338z M680.6-348.2L680-341
	c0,1.7,1.3,3,3,3l0,0c1.7,0,3-1.3,3-3v-12h-0.3 M697-330v-5h-10v6 M695.5-343h8.5 M690.3-343h1.9 M680-343h1.9"/>
<linearGradient id="SVGID_20_" gradientUnits="userSpaceOnUse" x1="748" y1="-361.25" x2="748" y2="-310.75">
	<stop  offset="0" style="stop-color:#2ACDE5"/>
	<stop  offset="0.1321" style="stop-color:#2CC4E2"/>
	<stop  offset="0.3517" style="stop-color:#33AAD8"/>
	<stop  offset="0.6317" style="stop-color:#3D81C9"/>
	<stop  offset="0.9583" style="stop-color:#4B48B4"/>
	<stop  offset="0.9944" style="stop-color:#4D41B1"/>
</linearGradient>
<path class="st20" d="M768-340.3c0,11-20,28-20,28s-20-17-20-28s9-20,20-20S768-351.3,768-340.3z M760.2-346c-1-2.2-2.6-4.1-4.7-5.5
	 M740.7-351.6c-2.2,1.4-4,3.4-5.1,6c-3,6.8,0.2,14.8,7.1,17.7c6.8,3,14.8-0.2,17.7-7.1c0.6-1.3,0.9-2.6,1-4 M736-311.8h24 M748-356
	c-4.7,0-8.5,4-8.5,9s3.8,9,8.5,9s8.5-4,8.5-9S752.7-356,748-356z M758.5-332c0-3.4-2.2-6.3-5.4-7.8 M742.8-339.8
	c-3.2,1.5-5.3,4.5-5.3,7.8 M741-352l3,3l3-2l3,2l2-1"/>
<text transform="matrix(1 0 0 1 822 -493)"><tspan x="0" y="0" style="fill:#0000FF; font-family:'MyriadPro-Regular'; font-size:15px;">4d41b1</tspan><tspan x="0" y="36" style="fill:#0000FF; font-family:'MyriadPro-Regular'; font-size:15px;">2acde5</tspan></text>
<circle class="st21" cx="15" cy="15" r="15"/>
<path class="st0" d="M16.4,15l4-4c0.4-0.4,0.4-1,0-1.4c-0.4-0.4-1-0.4-1.4,0l-4,4l-4-4c-0.4-0.4-1-0.4-1.4,0c-0.4,0.4-0.4,1,0,1.4
	l4,4l-4,4c-0.4,0.4-0.4,1,0,1.4c0.4,0.4,1,0.4,1.4,0l4-4l4,4c0.4,0.4,1,0.4,1.4,0c0.4-0.4,0.4-1,0-1.4L16.4,15z"/>
</svg>
