<?xml version="1.0" encoding="utf-8"?>
<!-- Generator: Adobe Illustrator 21.0.2, SVG Export Plug-In . SVG Version: 6.00 Build 0)  -->
<svg version="1.1" id="Слой_1" xmlns="http://www.w3.org/2000/svg" xmlns:xlink="http://www.w3.org/1999/xlink" x="0px" y="0px"
	 viewBox="0 0 50 50" style="enable-background:new 0 0 50 50;" xml:space="preserve">
<style type="text/css">
	.st0{fill:#FFFFFF;}
	.st1{fill:none;stroke:url(#SVGID_1_);stroke-width:2;stroke-linecap:round;stroke-linejoin:round;stroke-miterlimit:10;}
	.st2{fill:none;stroke:url(#SVGID_2_);stroke-width:2;stroke-linecap:round;stroke-linejoin:round;stroke-miterlimit:10;}
	.st3{fill:none;stroke:url(#SVGID_3_);stroke-width:2;stroke-linecap:round;stroke-linejoin:round;stroke-miterlimit:10;}
	.st4{fill:none;stroke:url(#SVGID_4_);stroke-width:2;stroke-linecap:round;stroke-linejoin:round;stroke-miterlimit:10;}
	.st5{fill:none;stroke:url(#SVGID_5_);stroke-width:2;stroke-linecap:round;stroke-linejoin:round;stroke-miterlimit:10;}
	.st6{fill:none;stroke:url(#SVGID_6_);stroke-width:2;stroke-linecap:round;stroke-linejoin:round;stroke-miterlimit:10;}
	.st7{fill:none;stroke:url(#SVGID_7_);stroke-width:2;stroke-linecap:round;stroke-linejoin:round;stroke-miterlimit:10;}
	.st8{fill:none;stroke:url(#SVGID_8_);stroke-width:2;stroke-linecap:round;stroke-linejoin:round;stroke-miterlimit:10;}
	.st9{fill:none;stroke:url(#SVGID_9_);stroke-width:2;stroke-linecap:round;stroke-linejoin:round;stroke-miterlimit:10;}
	.st10{fill:none;stroke:url(#SVGID_10_);stroke-width:2;stroke-linecap:round;stroke-linejoin:round;stroke-miterlimit:10;}
	.st11{fill:none;stroke:url(#SVGID_11_);stroke-width:2;stroke-linecap:round;stroke-linejoin:round;stroke-miterlimit:10;}
	.st12{fill:none;stroke:url(#SVGID_12_);stroke-width:2;stroke-linecap:round;stroke-linejoin:round;stroke-miterlimit:10;}
	.st13{fill:none;stroke:url(#SVGID_13_);stroke-width:2;stroke-linecap:round;stroke-linejoin:round;stroke-miterlimit:10;}
	.st14{fill:none;stroke:url(#SVGID_14_);stroke-width:2;stroke-linecap:round;stroke-linejoin:round;stroke-miterlimit:10;}
	.st15{fill:none;stroke:url(#SVGID_15_);stroke-width:2;stroke-linecap:round;stroke-linejoin:round;stroke-miterlimit:10;}
	.st16{fill:none;stroke:url(#SVGID_16_);stroke-width:2;stroke-linecap:round;stroke-linejoin:round;stroke-miterlimit:10;}
	.st17{fill:none;stroke:url(#SVGID_17_);stroke-width:2;stroke-linecap:round;stroke-linejoin:round;stroke-miterlimit:10;}
	.st18{fill:none;stroke:url(#SVGID_18_);stroke-width:2;stroke-linecap:round;stroke-linejoin:round;stroke-miterlimit:10;}
	.st19{fill:none;stroke:url(#SVGID_19_);stroke-width:2;stroke-linecap:round;stroke-linejoin:round;stroke-miterlimit:10;}
	.st20{fill:none;stroke:url(#SVGID_20_);stroke-width:2;stroke-linecap:round;stroke-linejoin:round;stroke-miterlimit:10;}
</style>
<rect x="-989" y="-542" class="st0" width="620" height="300"/>
<linearGradient id="SVGID_1_" gradientUnits="userSpaceOnUse" x1="-933" y1="-459.5" x2="-933" y2="-409.5">
	<stop  offset="0" style="stop-color:#FF7676"/>
	<stop  offset="0.1113" style="stop-color:#F6747D"/>
	<stop  offset="0.2965" style="stop-color:#DC6E91"/>
	<stop  offset="0.5327" style="stop-color:#B364B0"/>
	<stop  offset="0.8077" style="stop-color:#7A57DB"/>
	<stop  offset="0.9944" style="stop-color:#4F4DFC"/>
</linearGradient>
<path class="st1" d="M-929.6-418.6l-3.4-1.8l-14.9,7.9l2.9-16.6l-12.1-11.8l16.7-2.4l7.5-15.1l7.5,15.1l16.7,2.4l-5.6,5.4
	 M-921.4-422.6l-6.5,1l4.7,4.6l-1.1,6.5l5.8-3.1l5.8,3.1l-1.1-6.5l4.7-4.6l-6.5-1l-2.9-5.9L-921.4-422.6z M-940-411h-15l0,0H-940
	L-940-411z"/>
<text transform="matrix(1 0 0 1 -649 -512)"><tspan x="0" y="0" style="fill:#0000FF; font-family:'MyriadPro-Regular'; font-size:15px;">4f4dfc</tspan><tspan x="0" y="36" style="fill:#0000FF; font-family:'MyriadPro-Regular'; font-size:15px;">ff7676</tspan></text>
<text transform="matrix(1 0 0 1 -948 -483)" style="font-family:'MyriadPro-Regular'; font-size:15px;">50x50</text>
<linearGradient id="SVGID_2_" gradientUnits="userSpaceOnUse" x1="-866" y1="-465" x2="-866" y2="-415">
	<stop  offset="0" style="stop-color:#FF7676"/>
	<stop  offset="0.1113" style="stop-color:#F6747D"/>
	<stop  offset="0.2965" style="stop-color:#DC6E91"/>
	<stop  offset="0.5327" style="stop-color:#B364B0"/>
	<stop  offset="0.8077" style="stop-color:#7A57DB"/>
	<stop  offset="0.9944" style="stop-color:#4F4DFC"/>
</linearGradient>
<path class="st2" d="M-845.5-416h-40v-28c0-3.3,2.7-6,6-6h28c3.3,0,6,2.7,6,6V-416z M-845.5-444c0-3.3-2.7-6-6-6h-20
	c-3.3,0-6,2.7-6,6v28h32V-444z M-854.5-442v-15c0-3.9-3.1-7-7-7l0,0c-3.9,0-7,3.1-7,7v15 M-862.5-451v-6c0-3.9-3.1-7-7-7l0,0
	c-3.9,0-7,3.1-7,7v6 M-842.5-416h-47l0,0H-842.5L-842.5-416z M-883-437h0.3 M-845.5-437L-845.5-437h-33.8 M-848.5-426h-0.3
	 M-848.5-421h-0.3 M-885-426L-885-426h32.8"/>
<linearGradient id="SVGID_3_" gradientUnits="userSpaceOnUse" x1="-797" y1="-459.3617" x2="-797" y2="-410">
	<stop  offset="0" style="stop-color:#FF7676"/>
	<stop  offset="0.1113" style="stop-color:#F6747D"/>
	<stop  offset="0.2965" style="stop-color:#DC6E91"/>
	<stop  offset="0.5327" style="stop-color:#B364B0"/>
	<stop  offset="0.8077" style="stop-color:#7A57DB"/>
	<stop  offset="0.9944" style="stop-color:#4F4DFC"/>
</linearGradient>
<path class="st3" d="M-797.4-411L-797.4-411L-797.4-411c-9.3-5.5-15.7-14.7-17.8-25.3l-2.6-13.3l3.3-1.2l0.3-0.3
	c9.4-9.7,24.9-9.6,34.2,0.1v0l3.7,1.4l-2.4,12.6C-780.8-426-787.7-416.5-797.4-411z M-805.7-423.5c2.2,3.3,4.8,5.7,8.3,7.7l0,0l0,0
	c9.1-6.8,11-10.6,14.9-21.2 M-797.4-419.7 M-781.1-411h-24.1l0,0H-781.1L-781.1-411z M-807.3-437.1L-807.3-437.1
	c-1.1,1.1-1,2.8,0.1,3.9l6.6,5.9l14.1-14.9c0.8-0.8,0.8-2.1,0-2.9l0,0c-0.8-0.8-2.1-0.8-2.9,0l-11.1,11.1l-3-3
	C-804.6-438.1-806.2-438.1-807.3-437.1z M-811.3-447.9c-0.1,0.1-0.2,0.2-0.2,0.2 M-796-454.4c0,0-4.2-0.2-6.8,1
	c-2.3,1-5.9,3.4-6.2,3.6"/>
<linearGradient id="SVGID_4_" gradientUnits="userSpaceOnUse" x1="-728" y1="-459.5844" x2="-728" y2="-410">
	<stop  offset="0" style="stop-color:#FF7676"/>
	<stop  offset="0.1113" style="stop-color:#F6747D"/>
	<stop  offset="0.2965" style="stop-color:#DC6E91"/>
	<stop  offset="0.5327" style="stop-color:#B364B0"/>
	<stop  offset="0.8077" style="stop-color:#7A57DB"/>
	<stop  offset="0.9944" style="stop-color:#4F4DFC"/>
</linearGradient>
<path class="st4" d="M-716.2-411h-23l0,0H-716.2L-716.2-411z M-724.4-450.8l-21.4,21.4l0,0L-724.4-450.8L-724.4-450.8z
	 M-722.4-452.8l0.2-0.2l0,0L-722.4-452.8L-722.4-452.8z M-717.7-448.5l-23.6,23.6l0,0L-717.7-448.5L-717.7-448.5z M-728.2-429
	l-8.6,8.6l0,0L-728.2-429L-728.2-429z M-723.2-434l-1.5,1.5l0,0L-723.2-434L-723.2-434z M-726.2-425l-7.6,7.6l0,0L-726.2-425
	L-726.2-425z M-705.7-441.6l-16-16c-1.3-1.3-3.5-1.3-4.8,0l-23.6,23.6c-1.3,1.3-1.3,3.5,0,4.8l16,16c1.3,1.3,3.5,1.3,4.8,0
	l23.6-23.6C-704.4-438.1-704.4-440.2-705.7-441.6z M-711.1-440.9l-2.7-2.7c-0.2-0.2-0.6-0.2-0.8,0l-4.2,4.2c-0.2,0.2-0.2,0.6,0,0.8
	l2.7,2.7c0.2,0.2,0.6,0.2,0.8,0l4.2-4.2C-710.9-440.3-710.9-440.7-711.1-440.9z"/>
<linearGradient id="SVGID_5_" gradientUnits="userSpaceOnUse" x1="-660" y1="-456" x2="-660" y2="-414">
	<stop  offset="0" style="stop-color:#FF7676"/>
	<stop  offset="0.1113" style="stop-color:#F6747D"/>
	<stop  offset="0.2965" style="stop-color:#DC6E91"/>
	<stop  offset="0.5327" style="stop-color:#B364B0"/>
	<stop  offset="0.8077" style="stop-color:#7A57DB"/>
	<stop  offset="0.9944" style="stop-color:#4F4DFC"/>
</linearGradient>
<path class="st5" d="M-669-420c0,2.8-2.2,5-5,5s-5-2.2-5-5s2.2-5,5-5S-669-422.8-669-420z M-644.7-424.3c-2.6,0-4.6,2.1-4.6,4.6
	s2.1,4.6,4.6,4.6c2.6,0,4.6-2.1,4.6-4.6S-642.2-424.3-644.7-424.3z M-675-415h-9l0,0H-675L-675-415z M-654.5-415h0.9h8.1h-0.9
	 M-666-424h1.8h17.7h-2.8 M-670-443h-1.4H-684h1.4 M-666-443L-666-443h-0.7h0.1 M-669-419h14v-30h-29v30h4.6 M-640-419h4v-15.4
	l-7.1-7.6H-655v23h4.6 M-640.1-438h-9.9v9h14v-5 M-645-429v-9 M-670.8-449l-5.3-6l-5.6,6 M-658.9-449l-0.1-4h-15"/>
<linearGradient id="SVGID_6_" gradientUnits="userSpaceOnUse" x1="-931" y1="-382" x2="-931" y2="-332">
	<stop  offset="0" style="stop-color:#FF7676"/>
	<stop  offset="0.1113" style="stop-color:#F6747D"/>
	<stop  offset="0.2965" style="stop-color:#DC6E91"/>
	<stop  offset="0.5327" style="stop-color:#B364B0"/>
	<stop  offset="0.8077" style="stop-color:#7A57DB"/>
	<stop  offset="0.9944" style="stop-color:#4F4DFC"/>
</linearGradient>
<path class="st6" d="M-937.3-374.3c1.1,2.2,1.1,4.3,0,5.4s-4.3,3.3-4.3,4.3c0,1.1,4.2,6.6,6.5,9.8c2.8,3.7,9.7,9.7,10.8,9.7
	s4.4-4.3,6.6-4.3s9.5,8.1,8.4,10.3s-5.1,6-9.5,6c-4.3,0-17-8.4-23.9-16.3c-7.6-8.7-10.9-21.7-9.8-25c0.7-2,3.5-4.5,5.5-6.1
	c1.2-0.9,2.9-0.9,4,0.1C-941-378.4-938-375.7-937.3-374.3z M-927.9-333h-16l0,0H-927.9L-927.9-333z M-948.4-378c0,0,3.1,2.1,4,3
	c0.9,0.9,2,3,2,3 M-921.4-347c0,0,4,2,6,6"/>
<linearGradient id="SVGID_7_" gradientUnits="userSpaceOnUse" x1="-863" y1="-378.8824" x2="-863" y2="-329.1176">
	<stop  offset="0" style="stop-color:#FF7676"/>
	<stop  offset="0.1113" style="stop-color:#F6747D"/>
	<stop  offset="0.2965" style="stop-color:#DC6E91"/>
	<stop  offset="0.5327" style="stop-color:#B364B0"/>
	<stop  offset="0.8077" style="stop-color:#7A57DB"/>
	<stop  offset="0.9944" style="stop-color:#4F4DFC"/>
</linearGradient>
<path class="st7" d="M-873.9-330.1h21.4 M-860.3-377.9l-26.3,26.3l20.9,20.9l26.3-26.3L-860.3-377.9z M-885.6-351.6h24.4l1.3-25.4
	 M-866.1-332.1v-13.2 M-839.8-357.4h-14.4"/>
<linearGradient id="SVGID_8_" gradientUnits="userSpaceOnUse" x1="-793" y1="-382" x2="-793" y2="-332">
	<stop  offset="0" style="stop-color:#FF7676"/>
	<stop  offset="0.1113" style="stop-color:#F6747D"/>
	<stop  offset="0.2965" style="stop-color:#DC6E91"/>
	<stop  offset="0.5327" style="stop-color:#B364B0"/>
	<stop  offset="0.8077" style="stop-color:#7A57DB"/>
	<stop  offset="0.9944" style="stop-color:#4F4DFC"/>
</linearGradient>
<path class="st8" d="M-801.3-333h17 M-793.3-339c-1.7,0-3,1.3-3,3s1.3,3,3,3s3-1.3,3-3S-791.6-339-793.3-339z M-774.3-345
	c-1.7,0-3,1.3-3,3s1.3,3,3,3s3-1.3,3-3S-772.6-345-774.3-345z M-813.1-381h-4v2h4V-381z M-813.1-380l3.4,0.6l11.4,40.4l29.5-8.3
	 M-773.2-346.2l-3.9-13.7l-25.1,7.1l3.9,13.7 M-791.7-355.7l2.4,8.3l1.3-2.6l2.7,1.5l-2.4-8.3 M-783-358.5l-4.2-15l-19.3,5.5l4.2,15
	 M-799.1-369.6l2.3,8.1l1.7-2.5l3.2,1.1l-2.3-8.1"/>
<linearGradient id="SVGID_9_" gradientUnits="userSpaceOnUse" x1="-729" y1="-376.25" x2="-729" y2="-325.75">
	<stop  offset="0" style="stop-color:#FF7676"/>
	<stop  offset="0.1113" style="stop-color:#F6747D"/>
	<stop  offset="0.2965" style="stop-color:#DC6E91"/>
	<stop  offset="0.5327" style="stop-color:#B364B0"/>
	<stop  offset="0.8077" style="stop-color:#7A57DB"/>
	<stop  offset="0.9944" style="stop-color:#4F4DFC"/>
</linearGradient>
<path class="st9" d="M-709-355.3c0,11-20,28-20,28s-20-17-20-28s9-20,20-20S-709-366.3-709-355.3z M-716.3-350.7
	c1.1-3,1.1-6.4-0.2-9.6c-2.8-6.9-10.6-10.3-17.5-7.6s-10.3,10.6-7.6,17.5c2.8,6.9,10.6,10.3,17.5,7.6c1.3-0.5,2.5-1.2,3.6-2.1
	 M-741-326.8h24 M-723-354.8l-1-13h-5v13c0,1.7,1.3,3,3,3l0,0C-724.3-351.8-723-353.1-723-354.8z M-722.1-366.8h-0.9v12
	c0,1.7,1.3,3,3,3l0,0c1.7,0,3-1.3,3-3l-0.7-7.8 M-732-351.8L-732-351.8c1.7,0,3-1.3,3-3v-13h-5l-1,13
	C-735-353.1-733.7-351.8-732-351.8z M-740.4-361.9l-0.6,7.2c0,1.7,1.3,3,3,3l0,0c1.7,0,3-1.3,3-3v-12h-0.3 M-724-343.8v-5h-10v6
	 M-725.5-356.8h8.5 M-730.7-356.8h1.9 M-741-356.8h1.9"/>
<linearGradient id="SVGID_10_" gradientUnits="userSpaceOnUse" x1="-672" y1="-380.25" x2="-672" y2="-329.75">
	<stop  offset="0" style="stop-color:#FF7676"/>
	<stop  offset="0.1113" style="stop-color:#F6747D"/>
	<stop  offset="0.2965" style="stop-color:#DC6E91"/>
	<stop  offset="0.5327" style="stop-color:#B364B0"/>
	<stop  offset="0.8077" style="stop-color:#7A57DB"/>
	<stop  offset="0.9944" style="stop-color:#4F4DFC"/>
</linearGradient>
<path class="st10" d="M-652-359.3c0,11-20,28-20,28s-20-17-20-28s9-20,20-20S-652-370.3-652-359.3z M-659.8-365
	c-1-2.2-2.6-4.1-4.7-5.5 M-679.3-370.6c-2.2,1.4-4,3.4-5.1,6c-3,6.8,0.2,14.8,7.1,17.7c6.8,3,14.8-0.2,17.7-7.1c0.6-1.3,0.9-2.6,1-4
	 M-684-330.8h24 M-672-375c-4.7,0-8.5,4-8.5,9s3.8,9,8.5,9s8.5-4,8.5-9S-667.3-375-672-375z M-661.5-351c0-3.4-2.2-6.3-5.4-7.8
	 M-677.2-358.8c-3.2,1.5-5.3,4.5-5.3,7.8 M-679-371l3,3l3-2l3,2l2-1"/>
<rect x="-203" y="-531" class="st0" width="620" height="300"/>
<linearGradient id="SVGID_11_" gradientUnits="userSpaceOnUse" x1="-143" y1="-455.5" x2="-143" y2="-405.5">
	<stop  offset="0" style="stop-color:#2ACDE5"/>
	<stop  offset="0.1321" style="stop-color:#2CC4E2"/>
	<stop  offset="0.3517" style="stop-color:#33AAD8"/>
	<stop  offset="0.6317" style="stop-color:#3D81C9"/>
	<stop  offset="0.9583" style="stop-color:#4B48B4"/>
	<stop  offset="0.9944" style="stop-color:#4D41B1"/>
</linearGradient>
<path class="st11" d="M-139.6-414.6l-3.4-1.8l-14.9,7.9l2.9-16.6l-12.1-11.8l16.7-2.4l7.5-15.1l7.5,15.1l16.7,2.4l-5.6,5.4
	 M-131.4-418.6l-6.5,1l4.7,4.6l-1.1,6.5l5.8-3.1l5.8,3.1l-1.1-6.5l4.7-4.6l-6.5-1l-2.9-5.9L-131.4-418.6z M-150-407h-15l0,0H-150
	L-150-407z"/>
<text transform="matrix(1 0 0 1 -162 -472)" style="font-family:'MyriadPro-Regular'; font-size:15px;">50x50</text>
<linearGradient id="SVGID_12_" gradientUnits="userSpaceOnUse" x1="-76" y1="-450" x2="-76" y2="-400">
	<stop  offset="0" style="stop-color:#2ACDE5"/>
	<stop  offset="0.1321" style="stop-color:#2CC4E2"/>
	<stop  offset="0.3517" style="stop-color:#33AAD8"/>
	<stop  offset="0.6317" style="stop-color:#3D81C9"/>
	<stop  offset="0.9583" style="stop-color:#4B48B4"/>
	<stop  offset="0.9944" style="stop-color:#4D41B1"/>
</linearGradient>
<path class="st12" d="M-55.5-401h-40v-28c0-3.3,2.7-6,6-6h28c3.3,0,6,2.7,6,6V-401z M-55.5-429c0-3.3-2.7-6-6-6h-20
	c-3.3,0-6,2.7-6,6v28h32V-429z M-64.5-427v-15c0-3.9-3.1-7-7-7h0c-3.9,0-7,3.1-7,7v15 M-72.5-436v-6c0-3.9-3.1-7-7-7h0
	c-3.9,0-7,3.1-7,7v6 M-52.5-401h-47l0,0H-52.5L-52.5-401z M-93-422h0.3 M-55.5-422L-55.5-422h-33.8 M-58.5-411h-0.3 M-58.5-406h-0.3
	 M-95-411L-95-411h32.8"/>
<linearGradient id="SVGID_13_" gradientUnits="userSpaceOnUse" x1="0" y1="-449.3617" x2="3.022532e-15" y2="-400">
	<stop  offset="0" style="stop-color:#2ACDE5"/>
	<stop  offset="0.1321" style="stop-color:#2CC4E2"/>
	<stop  offset="0.3517" style="stop-color:#33AAD8"/>
	<stop  offset="0.6317" style="stop-color:#3D81C9"/>
	<stop  offset="0.9583" style="stop-color:#4B48B4"/>
	<stop  offset="0.9944" style="stop-color:#4D41B1"/>
</linearGradient>
<path class="st13" d="M-0.4-401L-0.4-401L-0.4-401c-9.3-5.5-15.7-14.7-17.8-25.3l-2.6-13.3l3.3-1.2l0.3-0.3
	c9.4-9.7,24.9-9.6,34.2,0.1l0,0l3.7,1.4L18.3-427C16.2-416,9.3-406.5-0.4-401z M-8.7-413.5c2.2,3.3,4.8,5.7,8.3,7.7h0h0
	c9.1-6.8,11-10.6,14.9-21.2 M-0.4-409.7 M15.9-401H-8.2l0,0H15.9L15.9-401z M-10.3-427.1L-10.3-427.1c-1.1,1.1-1,2.8,0.1,3.9
	l6.6,5.9l14.1-14.9c0.8-0.8,0.8-2.1,0-2.9h0c-0.8-0.8-2.1-0.8-2.9,0l-11.1,11.1l-3-3C-7.6-428.1-9.2-428.1-10.3-427.1z M-14.3-437.9
	c-0.1,0.1-0.2,0.2-0.2,0.2 M1-444.4c0,0-4.2-0.2-6.8,1c-2.3,1-5.9,3.4-6.2,3.6"/>
<linearGradient id="SVGID_14_" gradientUnits="userSpaceOnUse" x1="25" y1="0.2078" x2="25" y2="49.7922">
	<stop  offset="0" style="stop-color:#2ACDE5"/>
	<stop  offset="0.1321" style="stop-color:#2CC4E2"/>
	<stop  offset="0.3517" style="stop-color:#33AAD8"/>
	<stop  offset="0.6317" style="stop-color:#3D81C9"/>
	<stop  offset="0.9583" style="stop-color:#4B48B4"/>
	<stop  offset="0.9944" style="stop-color:#4D41B1"/>
</linearGradient>
<path class="st14" d="M36.8,48.8h-23l0,0H36.8L36.8,48.8z M28.6,9L7.2,30.4l0,0L28.6,9L28.6,9z M30.6,7l0.2-0.2l0,0L30.6,7L30.6,7z
	 M35.3,11.3L11.7,34.9l0,0L35.3,11.3L35.3,11.3z M24.8,30.8l-8.6,8.6l0,0L24.8,30.8L24.8,30.8z M29.8,25.8l-1.5,1.5l0,0L29.8,25.8
	L29.8,25.8z M26.8,34.8l-7.6,7.6l0,0L26.8,34.8L26.8,34.8z M47.3,18.2l-16-16c-1.3-1.3-3.5-1.3-4.8,0L2.7,25.8
	c-1.3,1.3-1.3,3.5,0,4.8l16,16c1.3,1.3,3.5,1.3,4.8,0l23.6-23.6C48.6,21.7,48.6,19.6,47.3,18.2z M41.9,18.9l-2.7-2.7
	c-0.2-0.2-0.6-0.2-0.8,0l-4.2,4.2c-0.2,0.2-0.2,0.6,0,0.8l2.7,2.7c0.2,0.2,0.6,0.2,0.8,0l4.2-4.2C42.1,19.5,42.1,19.1,41.9,18.9z"/>
<linearGradient id="SVGID_15_" gradientUnits="userSpaceOnUse" x1="137" y1="-441" x2="137" y2="-399">
	<stop  offset="0" style="stop-color:#2ACDE5"/>
	<stop  offset="0.1321" style="stop-color:#2CC4E2"/>
	<stop  offset="0.3517" style="stop-color:#33AAD8"/>
	<stop  offset="0.6317" style="stop-color:#3D81C9"/>
	<stop  offset="0.9583" style="stop-color:#4B48B4"/>
	<stop  offset="0.9944" style="stop-color:#4D41B1"/>
</linearGradient>
<path class="st15" d="M128-405c0,2.8-2.2,5-5,5s-5-2.2-5-5s2.2-5,5-5S128-407.8,128-405z M152.3-409.3c-2.6,0-4.6,2.1-4.6,4.6
	s2.1,4.6,4.6,4.6c2.6,0,4.6-2.1,4.6-4.6S154.8-409.3,152.3-409.3z M122-400h-9l0,0H122L122-400z M142.5-400h0.9h8.1h-0.9 M131-409
	h1.9h17.6h-2.9 M127-428h-1.4H113h1.4 M131-428L131-428h-0.7h0.1 M128-404h14v-30h-29v30h4.6 M157-404h4v-15.4l-7.1-7.6H142v23h4.6
	 M156.9-423H147v9h14v-5 M152-414v-9 M126.3-434l-5.3-6l-5.6,6 M138.1-434l-0.1-4h-15"/>
<linearGradient id="SVGID_16_" gradientUnits="userSpaceOnUse" x1="-136.6231" y1="-370" x2="-136.6231" y2="-320">
	<stop  offset="0" style="stop-color:#2ACDE5"/>
	<stop  offset="0.1321" style="stop-color:#2CC4E2"/>
	<stop  offset="0.3517" style="stop-color:#33AAD8"/>
	<stop  offset="0.6317" style="stop-color:#3D81C9"/>
	<stop  offset="0.9583" style="stop-color:#4B48B4"/>
	<stop  offset="0.9944" style="stop-color:#4D41B1"/>
</linearGradient>
<path class="st16" d="M-142.9-362.3c1.1,2.2,1.1,4.3,0,5.4s-4.3,3.3-4.3,4.3c0,1.1,4.2,6.6,6.5,9.8c2.8,3.7,9.7,9.7,10.8,9.7
	s4.4-4.3,6.6-4.3s9.5,8.1,8.4,10.3s-5.1,6-9.5,6c-4.3,0-17-8.4-23.9-16.3c-7.6-8.7-10.9-21.7-9.8-25c0.7-2,3.5-4.5,5.5-6.1
	c1.2-0.9,2.9-0.9,4,0.1C-146.6-366.4-143.7-363.7-142.9-362.3z M-133.5-321h-16l0,0H-133.5L-133.5-321z M-154-366c0,0,3.1,2.1,4,3
	s2,3,2,3 M-127-335c0,0,4,2,6,6"/>
<linearGradient id="SVGID_17_" gradientUnits="userSpaceOnUse" x1="-76" y1="-370.5" x2="-76" y2="-319.5">
	<stop  offset="0" style="stop-color:#2ACDE5"/>
	<stop  offset="0.1321" style="stop-color:#2CC4E2"/>
	<stop  offset="0.3517" style="stop-color:#33AAD8"/>
	<stop  offset="0.6317" style="stop-color:#3D81C9"/>
	<stop  offset="0.9583" style="stop-color:#4B48B4"/>
	<stop  offset="0.9944" style="stop-color:#4D41B1"/>
</linearGradient>
<path class="st17" d="M-87.2-320.5h22 M-73.2-369.5l-27,27l21.4,21.4l27-27L-73.2-369.5z M-99.2-342.5h25v-25 M-79.2-322.5V-336
	 M-52.2-348.5H-67"/>
<linearGradient id="SVGID_18_" gradientUnits="userSpaceOnUse" x1="-9.8659" y1="-369" x2="-9.8659" y2="-319">
	<stop  offset="0" style="stop-color:#2ACDE5"/>
	<stop  offset="0.1321" style="stop-color:#2CC4E2"/>
	<stop  offset="0.3517" style="stop-color:#33AAD8"/>
	<stop  offset="0.6317" style="stop-color:#3D81C9"/>
	<stop  offset="0.9583" style="stop-color:#4B48B4"/>
	<stop  offset="0.9944" style="stop-color:#4D41B1"/>
</linearGradient>
<path class="st18" d="M-18.1-320h17 M-10.1-326c-1.7,0-3,1.3-3,3s1.3,3,3,3s3-1.3,3-3S-8.5-326-10.1-326z M8.9-332c-1.7,0-3,1.3-3,3
	s1.3,3,3,3s3-1.3,3-3S10.5-332,8.9-332z M-30-368h-4v2h4V-368z M-30-367l3.4,0.6l11.4,40.4l29.5-8.3 M9.9-333.2l-3.9-13.7l-25.1,7.1
	l3.9,13.7 M-8.6-342.7l2.4,8.3L-5-337l2.7,1.5l-2.4-8.3 M0.1-345.5l-4.2-15l-19.3,5.5l4.2,15 M-16-356.6l2.3,8.1l1.7-2.5l3.2,1.1
	l-2.3-8.1"/>
<linearGradient id="SVGID_19_" gradientUnits="userSpaceOnUse" x1="61" y1="-370.5" x2="61" y2="-320">
	<stop  offset="0" style="stop-color:#2ACDE5"/>
	<stop  offset="0.1321" style="stop-color:#2CC4E2"/>
	<stop  offset="0.3517" style="stop-color:#33AAD8"/>
	<stop  offset="0.6317" style="stop-color:#3D81C9"/>
	<stop  offset="0.9583" style="stop-color:#4B48B4"/>
	<stop  offset="0.9944" style="stop-color:#4D41B1"/>
</linearGradient>
<path class="st19" d="M81-349.5c0,11-20,28-20,28s-20-17-20-28s9-20,20-20S81-360.5,81-349.5z M73.7-344.9c1.1-3,1.1-6.4-0.2-9.6
	c-2.8-6.9-10.6-10.3-17.5-7.6s-10.3,10.6-7.6,17.5S59.1-334.2,66-337c1.3-0.5,2.5-1.2,3.6-2.1 M49-321h24 M67-349l-1-13h-5v13
	c0,1.7,1.3,3,3,3h0C65.7-346,67-347.3,67-349z M67.9-361H67v12c0,1.7,1.3,3,3,3l0,0c1.7,0,3-1.3,3-3l-0.7-7.8 M58-346L58-346
	c1.7,0,3-1.3,3-3v-13h-5l-1,13C55-347.3,56.3-346,58-346z M49.6-356.2L49-349c0,1.7,1.3,3,3,3h0c1.7,0,3-1.3,3-3v-12h-0.3 M66-338
	v-5H56v6 M64.5-351H73 M59.3-351h1.9 M49-351h1.9"/>
<linearGradient id="SVGID_20_" gradientUnits="userSpaceOnUse" x1="117" y1="-369.25" x2="117" y2="-318.75">
	<stop  offset="0" style="stop-color:#2ACDE5"/>
	<stop  offset="0.1321" style="stop-color:#2CC4E2"/>
	<stop  offset="0.3517" style="stop-color:#33AAD8"/>
	<stop  offset="0.6317" style="stop-color:#3D81C9"/>
	<stop  offset="0.9583" style="stop-color:#4B48B4"/>
	<stop  offset="0.9944" style="stop-color:#4D41B1"/>
</linearGradient>
<path class="st20" d="M137-348.3c0,11-20,28-20,28s-20-17-20-28s9-20,20-20S137-359.3,137-348.3z M129.2-354c-1-2.2-2.6-4.1-4.7-5.5
	 M109.7-359.6c-2.2,1.4-4,3.4-5.1,6c-3,6.8,0.2,14.8,7.1,17.7c6.8,3,14.8-0.2,17.7-7.1c0.6-1.3,0.9-2.6,1-4 M105-319.8h24 M117-364
	c-4.7,0-8.5,4-8.5,9s3.8,9,8.5,9s8.5-4,8.5-9S121.7-364,117-364z M127.5-340c0-3.4-2.2-6.3-5.4-7.8 M111.8-347.8
	c-3.2,1.5-5.3,4.5-5.3,7.8 M110-360l3,3l3-2l3,2l2-1"/>
<text transform="matrix(1 0 0 1 191 -501)"><tspan x="0" y="0" style="fill:#0000FF; font-family:'MyriadPro-Regular'; font-size:15px;">4d41b1</tspan><tspan x="0" y="36" style="fill:#0000FF; font-family:'MyriadPro-Regular'; font-size:15px;">2acde5</tspan></text>
</svg>
