<?xml version="1.0" encoding="utf-8"?>
<!-- Generator: Adobe Illustrator 21.0.2, SVG Export Plug-In . SVG Version: 6.00 Build 0)  -->
<svg version="1.1" id="Слой_1" xmlns="http://www.w3.org/2000/svg" xmlns:xlink="http://www.w3.org/1999/xlink" x="0px" y="0px"
	 viewBox="0 0 33 20" style="enable-background:new 0 0 33 20;" xml:space="preserve">
<style type="text/css">
	.st0{fill:url(#SVGID_1_);}
	.st1{opacity:0.75;fill:url(#SVGID_2_);}
	.st2{opacity:0.35;fill:url(#SVGID_3_);}
</style>
<g>
	
		<linearGradient id="SVGID_1_" gradientUnits="userSpaceOnUse" x1="23" y1="-2.0104" x2="23" y2="-12.9272" gradientTransform="matrix(6.123234e-17 -1 1 6.123234e-17 12.9688 33.0312)">
		<stop  offset="0" style="stop-color:#6452EC"/>
		<stop  offset="0.1365" style="stop-color:#6D54E5"/>
		<stop  offset="0.3633" style="stop-color:#875AD1"/>
		<stop  offset="0.6527" style="stop-color:#B064B2"/>
		<stop  offset="0.9901" style="stop-color:#E97187"/>
		<stop  offset="0.9944" style="stop-color:#EA7186"/>
	</linearGradient>
	<path class="st0" d="M0.3,0.3L0.3,0.3c-0.4,0.4-0.4,1,0,1.4L8.7,10l-8.3,8.3c-0.4,0.4-0.4,1,0,1.4l0,0c0.4,0.4,1,0.4,1.4,0l8.9-8.9
		c0.2-0.2,0.3-0.5,0.3-0.8c0-0.3-0.1-0.5-0.3-0.7l-9-9C1.3-0.1,0.7-0.1,0.3,0.3z"/>
	
		<linearGradient id="SVGID_2_" gradientUnits="userSpaceOnUse" x1="23" y1="8.9896" x2="23" y2="-1.9272" gradientTransform="matrix(6.123234e-17 -1 1 6.123234e-17 12.9688 33.0312)">
		<stop  offset="0" style="stop-color:#6452EC"/>
		<stop  offset="0.1365" style="stop-color:#6D54E5"/>
		<stop  offset="0.3633" style="stop-color:#875AD1"/>
		<stop  offset="0.6527" style="stop-color:#B064B2"/>
		<stop  offset="0.9901" style="stop-color:#E97187"/>
		<stop  offset="0.9944" style="stop-color:#EA7186"/>
	</linearGradient>
	<path class="st1" d="M11.3,0.3L11.3,0.3c-0.4,0.4-0.4,1,0,1.4l8.4,8.4l-8.3,8.3c-0.4,0.4-0.4,1,0,1.4l0,0c0.4,0.4,1,0.4,1.4,0
		l8.9-8.9c0.2-0.2,0.3-0.5,0.3-0.8c0-0.3-0.1-0.5-0.3-0.7l-9-9C12.3-0.1,11.7-0.1,11.3,0.3z"/>
	
		<linearGradient id="SVGID_3_" gradientUnits="userSpaceOnUse" x1="23" y1="19.9896" x2="23" y2="9.0728" gradientTransform="matrix(6.123234e-17 -1 1 6.123234e-17 12.9688 33.0312)">
		<stop  offset="0" style="stop-color:#6452EC"/>
		<stop  offset="0.1365" style="stop-color:#6D54E5"/>
		<stop  offset="0.3633" style="stop-color:#875AD1"/>
		<stop  offset="0.6527" style="stop-color:#B064B2"/>
		<stop  offset="0.9901" style="stop-color:#E97187"/>
		<stop  offset="0.9944" style="stop-color:#EA7186"/>
	</linearGradient>
	<path class="st2" d="M22.3,0.3L22.3,0.3c-0.4,0.4-0.4,1,0,1.4l8.4,8.4l-8.3,8.3c-0.4,0.4-0.4,1,0,1.4l0,0c0.4,0.4,1,0.4,1.4,0
		l8.9-8.9c0.2-0.2,0.3-0.5,0.3-0.8c0-0.3-0.1-0.5-0.3-0.7l-9-9C23.3-0.1,22.7-0.1,22.3,0.3z"/>
</g>
</svg>
