<?xml version="1.0" encoding="utf-8"?>
<!-- Generator: Adobe Illustrator 21.0.2, SVG Export Plug-In . SVG Version: 6.00 Build 0)  -->
<svg version="1.1" id="Слой_1" xmlns="http://www.w3.org/2000/svg" xmlns:xlink="http://www.w3.org/1999/xlink" x="0px" y="0px"
	 viewBox="0 0 33 20" style="enable-background:new 0 0 33 20;" xml:space="preserve">
<style type="text/css">
	.st0{fill:url(#SVGID_1_);}
	.st1{opacity:0.75;fill:url(#SVGID_2_);}
	.st2{opacity:0.35;fill:url(#SVGID_3_);}
</style>
<g>
	
		<linearGradient id="SVGID_1_" gradientUnits="userSpaceOnUse" x1="23" y1="-2.0104" x2="23" y2="-12.9272" gradientTransform="matrix(-6.123234e-17 1 -1 -6.123234e-17 20.0312 -12.9688)">
		<stop  offset="0" style="stop-color:#6452EC"/>
		<stop  offset="0.1365" style="stop-color:#6D54E5"/>
		<stop  offset="0.3633" style="stop-color:#875AD1"/>
		<stop  offset="0.6527" style="stop-color:#B064B2"/>
		<stop  offset="0.9901" style="stop-color:#E97187"/>
		<stop  offset="0.9944" style="stop-color:#EA7186"/>
	</linearGradient>
	<path class="st0" d="M32.7,19.8L32.7,19.8c0.4-0.4,0.4-1,0-1.4L24.3,10l8.3-8.3c0.4-0.4,0.4-1,0-1.4l0,0c-0.4-0.4-1-0.4-1.4,0
		l-8.9,8.9C22.1,9.5,22,9.7,22,10c0,0.3,0.1,0.5,0.3,0.7l9,9C31.7,20.1,32.3,20.1,32.7,19.8z"/>
	
		<linearGradient id="SVGID_2_" gradientUnits="userSpaceOnUse" x1="23" y1="8.9896" x2="23" y2="-1.9272" gradientTransform="matrix(-6.123234e-17 1 -1 -6.123234e-17 20.0312 -12.9688)">
		<stop  offset="0" style="stop-color:#6452EC"/>
		<stop  offset="0.1365" style="stop-color:#6D54E5"/>
		<stop  offset="0.3633" style="stop-color:#875AD1"/>
		<stop  offset="0.6527" style="stop-color:#B064B2"/>
		<stop  offset="0.9901" style="stop-color:#E97187"/>
		<stop  offset="0.9944" style="stop-color:#EA7186"/>
	</linearGradient>
	<path class="st1" d="M21.7,19.8L21.7,19.8c0.4-0.4,0.4-1,0-1.4L13.3,10l8.3-8.3c0.4-0.4,0.4-1,0-1.4l0,0c-0.4-0.4-1-0.4-1.4,0
		l-8.9,8.9C11.1,9.5,11,9.7,11,10c0,0.3,0.1,0.5,0.3,0.7l9,9C20.7,20.1,21.3,20.1,21.7,19.8z"/>
	
		<linearGradient id="SVGID_3_" gradientUnits="userSpaceOnUse" x1="23" y1="19.9896" x2="23" y2="9.0728" gradientTransform="matrix(-6.123234e-17 1 -1 -6.123234e-17 20.0312 -12.9688)">
		<stop  offset="0" style="stop-color:#6452EC"/>
		<stop  offset="0.1365" style="stop-color:#6D54E5"/>
		<stop  offset="0.3633" style="stop-color:#875AD1"/>
		<stop  offset="0.6527" style="stop-color:#B064B2"/>
		<stop  offset="0.9901" style="stop-color:#E97187"/>
		<stop  offset="0.9944" style="stop-color:#EA7186"/>
	</linearGradient>
	<path class="st2" d="M10.7,19.8L10.7,19.8c0.4-0.4,0.4-1,0-1.4L2.3,10l8.3-8.3c0.4-0.4,0.4-1,0-1.4l0,0c-0.4-0.4-1-0.4-1.4,0
		L0.3,9.2C0.1,9.5,0,9.7,0,10c0,0.3,0.1,0.5,0.3,0.7l9,9C9.7,20.1,10.3,20.1,10.7,19.8z"/>
</g>
</svg>
